<?xml version="1.0" encoding="utf-8"?>
<!-- Generator: Adobe Illustrator 16.0.0, SVG Export Plug-In . SVG Version: 6.00 Build 0)  -->
<!DOCTYPE svg PUBLIC "-//W3C//DTD SVG 1.1//EN" "http://www.w3.org/Graphics/SVG/1.1/DTD/svg11.dtd">
<svg version="1.1" id="Layer_1" xmlns="http://www.w3.org/2000/svg" xmlns:xlink="http://www.w3.org/1999/xlink" x="0px" y="0px"
	 width="1400px" height="980px" viewBox="0 0 1400 980" enable-background="new 0 0 1400 980" xml:space="preserve">
<g>
	<g>
		<g>
			<rect fill="#FFFFFF" width="1400" height="980"/>
		</g>
	</g>
	<g>
		<rect x="554.2" y="101.2" fill="#F1F2F2" width="339.9" height="31.5"/>
	</g>
	<g>
		<rect x="554.2" y="160.6" fill="#F1F2F2" width="339.9" height="31.5"/>
	</g>
	<g>
		<g>
			<path fill="#FF9E81" d="M949.4,291.8c0-26.4-21.4-47.8-47.8-47.8H440.3c-26.4,0-47.8,21.4-47.8,47.8v272.3h557V291.8z"/>
			<path d="M949.4,566.8h-557c-1.5,0-2.7-1.2-2.7-2.7V291.8c0-27.9,22.7-50.5,50.5-50.5h461.3c27.9,0,50.5,22.7,50.5,50.5v272.3
				C952.1,565.6,950.9,566.8,949.4,566.8z M395.1,561.4h551.6V291.8c0-24.9-20.2-45.1-45.1-45.1H440.3c-24.9,0-45.1,20.2-45.1,45.1
				V561.4z"/>
		</g>
		<g>
			<path fill="#FFFFFF" d="M392.4,564.1v27.6c0,26.4,21.4,47.8,47.8,47.8h461.3c26.4,0,47.8-21.4,47.8-47.8v-27.6H392.4z"/>
			<path d="M901.6,642.2H440.3c-27.9,0-50.5-22.7-50.5-50.5v-27.6c0-1.5,1.2-2.7,2.7-2.7h557c1.5,0,2.7,1.2,2.7,2.7v27.6
				C952.1,619.6,929.5,642.2,901.6,642.2z M395.1,566.8v24.9c0,24.9,20.2,45.1,45.1,45.1h461.3c24.9,0,45.1-20.3,45.1-45.1v-24.9
				H395.1z"/>
		</g>
	</g>
	<g>
		<polygon fill="#FFFFFF" points="733.4,639.5 670.9,639.5 608.5,639.5 608.5,702.5 733.4,702.5 		"/>
		<path d="M733.4,705.2H608.5c-1.5,0-2.7-1.2-2.7-2.7v-63c0-1.5,1.2-2.7,2.7-2.7h124.9c1.5,0,2.7,1.2,2.7,2.7v63
			C736.1,704,734.9,705.2,733.4,705.2z M611.2,699.8h119.5v-57.6H611.2V699.8z"/>
	</g>
	<g>
		<line fill="#FFFFFF" x1="608.5" y1="601.8" x2="733.4" y2="601.8"/>
		<path d="M733.4,604.5H608.5c-1.5,0-2.7-1.2-2.7-2.7s1.2-2.7,2.7-2.7h124.9c1.5,0,2.7,1.2,2.7,2.7S734.9,604.5,733.4,604.5z"/>
	</g>
	<g>
		<rect x="555.9" y="702.5" fill="#FFFFFF" width="230" height="31.2"/>
		<path d="M785.9,736.4h-230c-1.5,0-2.7-1.2-2.7-2.7v-31.2c0-1.5,1.2-2.7,2.7-2.7h230c1.5,0,2.7,1.2,2.7,2.7v31.2
			C788.6,735.2,787.4,736.4,785.9,736.4z M558.6,731h224.6v-25.8H558.6V731z"/>
	</g>
	<g>
		<g>
			<path fill="#FFFFFF" d="M837.9,662.9c0,9.6,7.9,17.5,17.5,17.5h171.9c9.6,0,17.5-7.9,17.5-17.5v-36.8H837.9V662.9z"/>
			<path d="M1027.3,683.1H855.4c-11.1,0-20.2-9.1-20.2-20.2v-36.8c0-1.5,1.2-2.7,2.7-2.7h206.9c1.5,0,2.7,1.2,2.7,2.7v36.8
				C1047.5,674.1,1038.4,683.1,1027.3,683.1z M840.6,628.8v34.1c0,8.2,6.6,14.8,14.8,14.8h171.9c8.2,0,14.8-6.6,14.8-14.8v-34.1
				H840.6z"/>
		</g>
		<g>
			<path fill="#FFFFFF" d="M1044.8,349c0-9.6-7.9-17.5-17.5-17.5H855.4c-9.6,0-17.5,7.9-17.5,17.5v32.8h206.9V349z"/>
			<path d="M1044.8,384.5H837.9c-1.5,0-2.7-1.2-2.7-2.7V349c0-11.1,9.1-20.2,20.2-20.2h171.9c11.1,0,20.2,9.1,20.2,20.2v32.8
				C1047.5,383.3,1046.3,384.5,1044.8,384.5z M840.6,379.1h201.5V349c0-8.2-6.6-14.8-14.8-14.8H855.4c-8.2,0-14.8,6.6-14.8,14.8
				V379.1z"/>
		</g>
		<g>
			<rect x="837.9" y="381.8" fill="#51D8FF" width="206.9" height="244.4"/>
			<path d="M1044.8,628.8H837.9c-1.5,0-2.7-1.2-2.7-2.7V381.8c0-1.5,1.2-2.7,2.7-2.7h206.9c1.5,0,2.7,1.2,2.7,2.7v244.4
				C1047.5,627.6,1046.3,628.8,1044.8,628.8z M840.6,623.5h201.5v-239H840.6V623.5z"/>
		</g>
	</g>
	<g>
		<line fill="#FFFFFF" x1="912.2" y1="653.3" x2="970.5" y2="653.3"/>
		<path d="M970.5,656h-58.3c-1.5,0-2.7-1.2-2.7-2.7c0-1.5,1.2-2.7,2.7-2.7h58.3c1.5,0,2.7,1.2,2.7,2.7
			C973.2,654.8,972,656,970.5,656z"/>
	</g>
	<g>
		<line fill="#FFFFFF" x1="960.1" y1="356.6" x2="991.8" y2="356.6"/>
		<path d="M991.8,359.3h-31.7c-1.5,0-2.7-1.2-2.7-2.7s1.2-2.7,2.7-2.7h31.7c1.5,0,2.7,1.2,2.7,2.7S993.3,359.3,991.8,359.3z"/>
	</g>
	<g>
		<polyline fill="#51D8FF" points="925.1,416.5 725.5,416.5 725.5,404 670.9,435.6 725.5,467.1 725.5,454.6 925.1,454.6 		"/>
		<path d="M725.5,469.8c-0.5,0-0.9-0.1-1.3-0.4l-54.6-31.5c-0.8-0.5-1.3-1.4-1.3-2.3s0.5-1.9,1.3-2.3l54.6-31.5
			c0.8-0.5,1.9-0.5,2.7,0c0.8,0.5,1.3,1.4,1.3,2.3v9.8h196.9c1.5,0,2.7,1.2,2.7,2.7s-1.2,2.7-2.7,2.7H725.5c-1.5,0-2.7-1.2-2.7-2.7
			v-7.8l-46.5,26.8l46.5,26.8v-7.8c0-1.5,1.2-2.7,2.7-2.7h199.6c1.5,0,2.7,1.2,2.7,2.7s-1.2,2.7-2.7,2.7H728.2v9.8
			c0,1-0.5,1.9-1.3,2.3C726.5,469.7,726,469.8,725.5,469.8z"/>
	</g>
	<g>
		<polyline fill="#FF9E81" points="681.1,534.1 880.8,534.1 880.8,546.6 935.3,515.1 880.8,483.6 880.8,496.1 681.1,496.1 		"/>
		<path d="M880.8,549.3c-0.5,0-0.9-0.1-1.3-0.4c-0.8-0.5-1.3-1.4-1.3-2.3v-9.8H681.1c-1.5,0-2.7-1.2-2.7-2.7s1.2-2.7,2.7-2.7h199.6
			c1.5,0,2.7,1.2,2.7,2.7v7.8l46.5-26.8l-46.5-26.8v7.8c0,1.5-1.2,2.7-2.7,2.7H681.1c-1.5,0-2.7-1.2-2.7-2.7s1.2-2.7,2.7-2.7h196.9
			v-9.8c0-1,0.5-1.9,1.3-2.3c0.8-0.5,1.9-0.5,2.7,0l54.6,31.5c0.8,0.5,1.3,1.4,1.3,2.3c0,1-0.5,1.9-1.3,2.3L882.1,549
			C881.7,549.2,881.2,549.3,880.8,549.3z"/>
	</g>
	<g>
		<rect x="440.6" y="293.8" fill="#F09578" width="49.3" height="49.3"/>
	</g>
	<g>
		<rect x="516.1" y="293.8" fill="#F09578" width="49.3" height="49.3"/>
	</g>
	<g>
		<rect x="440.6" y="369.8" fill="#F09578" width="49.3" height="49.3"/>
	</g>
	<g>
		<rect x="516.1" y="369.8" fill="#F09578" width="49.3" height="49.3"/>
	</g>
	<g>
		<rect x="591.6" y="293.8" fill="#F09578" width="49.3" height="49.3"/>
	</g>
	<g>
		<rect x="667" y="293.8" fill="#F09578" width="49.3" height="49.3"/>
	</g>
	<g>
		<rect x="742.5" y="293.8" fill="#F09578" width="49.3" height="49.3"/>
	</g>
	<g>
		<rect x="973.8" y="410.1" fill="#4BCCF0" width="49.3" height="49.3"/>
	</g>
	<g>
		<rect x="973.8" y="479.3" fill="#4BCCF0" width="49.3" height="49.3"/>
	</g>
	<g>
		<rect x="973.8" y="548.5" fill="#4BCCF0" width="49.3" height="49.3"/>
	</g>
	<g>
		<g>
			<g>
				<path d="M1230.6,178.1c-1.5,0-2.7-1.2-2.7-2.7c0-31.2-25.4-56.6-56.6-56.6c-15.1,0-29.3,5.9-40,16.6c-1.1,1.1-2.8,1.1-3.8,0
					s-1.1-2.8,0-3.8c11.7-11.7,27.3-18.2,43.8-18.2c34.2,0,62,27.8,62,62C1233.3,176.9,1232.1,178.1,1230.6,178.1z"/>
			</g>
			<g>
				<path d="M1171.3,237.4c-34.2,0-62-27.8-62-62c0-1.5,1.2-2.7,2.7-2.7s2.7,1.2,2.7,2.7c0,31.2,25.4,56.6,56.6,56.6
					c15.1,0,29.3-5.9,40-16.6c1.1-1.1,2.8-1.1,3.8,0c1.1,1.1,1.1,2.8,0,3.8C1203.4,230.9,1187.9,237.4,1171.3,237.4z"/>
			</g>
			<g>
				<path d="M1121.3,173.1c-0.7,0-1.4-0.3-1.9-0.8l-7.9-7.9l-7.9,7.9c-1.1,1.1-2.8,1.1-3.8,0s-1.1-2.8,0-3.8l9.8-9.8
					c1-1,2.8-1,3.8,0l9.8,9.8c1.1,1.1,1.1,2.8,0,3.8C1122.7,172.8,1122,173.1,1121.3,173.1z"/>
			</g>
			<g>
				<path d="M1230.6,192.8c-0.7,0-1.4-0.3-1.9-0.8l-9.8-9.8c-1.1-1.1-1.1-2.8,0-3.8c1.1-1.1,2.8-1.1,3.8,0l7.9,7.9l7.9-7.9
					c1.1-1.1,2.8-1.1,3.8,0s1.1,2.8,0,3.8l-9.8,9.8C1232,192.6,1231.3,192.8,1230.6,192.8z"/>
			</g>
		</g>
		<g>
			<path d="M1275.9,286.6h-232.7c-34.4,0-62.4-28-62.4-62.4c0-34.4,28-62.4,62.4-62.4h33.2c8.4-44.9,47.2-77.3,93.1-77.3
				c52.3,0,94.8,42.5,94.8,94.8c0,8.3-1.1,16.6-3.2,24.5h14.8c22.8,0,41.4,18.6,41.4,41.4C1317.3,268,1298.8,286.6,1275.9,286.6z
				 M1043.2,167.1c-31.5,0-57,25.6-57,57c0,31.5,25.6,57,57,57h232.7c19.9,0,36-16.2,36-36c0-19.9-16.2-36-36-36h-18.3
				c-0.9,0-1.7-0.4-2.2-1.1c-0.5-0.7-0.7-1.6-0.4-2.4c2.6-8.5,4-17.4,4-26.4c0-49.3-40.1-89.4-89.4-89.4c-44,0-81.1,31.6-88.2,75.1
				c-0.2,1.3-1.3,2.3-2.7,2.3H1043.2z"/>
		</g>
	</g>
	<g>
		<path d="M349.7,882.3h-95.3c-1.5,0-2.7-1.2-2.7-2.7v-200c0-1.5,1.2-2.7,2.7-2.7h95.3c1.5,0,2.7,1.2,2.7,2.7v200
			C352.4,881.1,351.2,882.3,349.7,882.3z M257,877h90V682.4h-90V877z"/>
	</g>
	<g>
		<path d="M479.8,882.3h-95.3c-1.5,0-2.7-1.2-2.7-2.7v-200c0-1.5,1.2-2.7,2.7-2.7h95.3c1.5,0,2.7,1.2,2.7,2.7v200
			C482.5,881.1,481.2,882.3,479.8,882.3z M387.1,877h90V682.4h-90V877z"/>
	</g>
	<g>
		<path d="M332.4,715h-60.7c-1.5,0-2.7-1.2-2.7-2.7c0-1.5,1.2-2.7,2.7-2.7h60.7c1.5,0,2.7,1.2,2.7,2.7
			C335.1,713.8,333.9,715,332.4,715z"/>
	</g>
	<g>
		<path d="M332.4,748.7h-60.7c-1.5,0-2.7-1.2-2.7-2.7c0-1.5,1.2-2.7,2.7-2.7h60.7c1.5,0,2.7,1.2,2.7,2.7
			C335.1,747.5,333.9,748.7,332.4,748.7z"/>
	</g>
	<g>
		<path d="M332.4,782.4h-60.7c-1.5,0-2.7-1.2-2.7-2.7s1.2-2.7,2.7-2.7h60.7c1.5,0,2.7,1.2,2.7,2.7S333.9,782.4,332.4,782.4z"/>
	</g>
	<g>
		<path d="M332.4,816.1h-60.7c-1.5,0-2.7-1.2-2.7-2.7c0-1.5,1.2-2.7,2.7-2.7h60.7c1.5,0,2.7,1.2,2.7,2.7
			C335.1,814.9,333.9,816.1,332.4,816.1z"/>
	</g>
	<g>
		<path d="M332.4,849.8h-60.7c-1.5,0-2.7-1.2-2.7-2.7c0-1.5,1.2-2.7,2.7-2.7h60.7c1.5,0,2.7,1.2,2.7,2.7
			C335.1,848.6,333.9,849.8,332.4,849.8z"/>
	</g>
	<g>
		<path d="M462.4,715h-60.7c-1.5,0-2.7-1.2-2.7-2.7c0-1.5,1.2-2.7,2.7-2.7h60.7c1.5,0,2.7,1.2,2.7,2.7
			C465.1,713.8,463.9,715,462.4,715z"/>
	</g>
	<g>
		<path d="M462.4,748.7h-60.7c-1.5,0-2.7-1.2-2.7-2.7c0-1.5,1.2-2.7,2.7-2.7h60.7c1.5,0,2.7,1.2,2.7,2.7
			C465.1,747.5,463.9,748.7,462.4,748.7z"/>
	</g>
	<g>
		<path d="M462.4,782.4h-60.7c-1.5,0-2.7-1.2-2.7-2.7s1.2-2.7,2.7-2.7h60.7c1.5,0,2.7,1.2,2.7,2.7S463.9,782.4,462.4,782.4z"/>
	</g>
	<g>
		<path d="M462.4,816.1h-60.7c-1.5,0-2.7-1.2-2.7-2.7c0-1.5,1.2-2.7,2.7-2.7h60.7c1.5,0,2.7,1.2,2.7,2.7
			C465.1,814.9,463.9,816.1,462.4,816.1z"/>
	</g>
	<g>
		<path d="M462.4,849.8h-60.7c-1.5,0-2.7-1.2-2.7-2.7c0-1.5,1.2-2.7,2.7-2.7h60.7c1.5,0,2.7,1.2,2.7,2.7
			C465.1,848.6,463.9,849.8,462.4,849.8z"/>
	</g>
	<g>
		<path d="M254.3,833.8h-39.2c-1.5,0-2.7-1.2-2.7-2.7V601.8c0-1.5,1.2-2.7,2.7-2.7c1.5,0,2.7,1.2,2.7,2.7v226.6h36.6
			c1.5,0,2.7,1.2,2.7,2.7S255.8,833.8,254.3,833.8z"/>
	</g>
	<g>
		<path d="M626.2,833.8H479.8c-1.5,0-2.7-1.2-2.7-2.7s1.2-2.7,2.7-2.7h146.5c1.5,0,2.7,1.2,2.7,2.7S627.7,833.8,626.2,833.8z"/>
	</g>
	<g>
		<path d="M785.9,905.3H626.2c-0.9,0-1.8-0.5-2.3-1.2c-0.5-0.8-0.6-1.7-0.2-2.6l36.4-82.9c0.4-1,1.4-1.6,2.5-1.6h159.7
			c0.9,0,1.8,0.5,2.3,1.2c0.5,0.8,0.6,1.7,0.2,2.6l-36.4,82.9C788,904.6,787,905.3,785.9,905.3z M630.4,899.9h153.8l34.1-77.5H664.4
			L630.4,899.9z"/>
	</g>
	<g>
		<path d="M626.2,905.3c-0.2,0-0.4,0-0.6-0.1c-1.2-0.3-2.1-1.4-2.1-2.6V768.4c0-1.5,1.2-2.7,2.7-2.7h57.3c0.8,0,1.6,0.4,2.1,1
			l25.5,32.7h74.8c1.5,0,2.7,1.2,2.7,2.7v17.5c0,1.5-1.2,2.7-2.7,2.7H664.4l-35.7,81.3C628.3,904.6,627.3,905.3,626.2,905.3z
			 M628.9,771.1v118.6l31.3-71.2c0.4-1,1.4-1.6,2.5-1.6h120.6v-12.1h-73.4c-0.8,0-1.6-0.4-2.1-1l-25.5-32.7H628.9z"/>
	</g>
	<g>
		<g>
			<path d="M332.4,604.5H77.2c-1.5,0-2.7-1.2-2.7-2.7V394.4c0-1.5,1.2-2.7,2.7-2.7h255.2c1.5,0,2.7,1.2,2.7,2.7v207.5
				C335.1,603.3,333.9,604.5,332.4,604.5z M79.9,599.1h249.8V397.1H79.9V599.1z"/>
		</g>
		<g>
			<path d="M107.7,548.5c-0.3,0-0.6,0-0.8-0.1c-1.1-0.4-1.9-1.4-1.9-2.6V419c0-1.5,1.2-2.7,2.7-2.7h194.1c1.5,0,2.7,1.2,2.7,2.7
				v126.7c0,1.2-0.7,2.2-1.9,2.6c-1.1,0.4-2.3,0-3-1l-66.8-90.3l-58,78.5c-0.5,0.7-1.3,1.1-2.2,1.1l0,0c-0.9,0-1.7-0.4-2.2-1.1
				l-25.9-35.1l-34.7,46.9C109.4,548.1,108.5,548.5,107.7,548.5z M110.4,421.7v115.9l32-43.3c0.5-0.7,1.3-1.1,2.2-1.1l0,0
				c0.9,0,1.7,0.4,2.2,1.1l25.9,35.1l58-78.5c0.5-0.7,1.3-1.1,2.2-1.1l0,0c0.9,0,1.7,0.4,2.2,1.1l64.1,86.6V421.7H110.4z"/>
		</g>
		<g>
			<path d="M163.3,549.3h-55.6c-1.5,0-2.7-1.2-2.7-2.7v-0.9c0-0.6,0.2-1.1,0.5-1.6l36.9-49.8c0.5-0.7,1.3-1.1,2.2-1.1l0,0
				c0.9,0,1.7,0.4,2.2,1.1l28.1,38c0.7,0.9,0.7,2.2,0,3.2l-9.4,12.7C165,548.9,164.2,549.3,163.3,549.3z M112.4,543.9H162l7.4-10
				l-24.8-33.5L112.4,543.9z"/>
		</g>
		<g>
			<path d="M301.8,549.3H163.3c-1,0-1.9-0.6-2.4-1.5c-0.5-0.9-0.4-2,0.2-2.8l69.6-94.1c0.5-0.7,1.3-1.1,2.2-1.1l0,0
				c0.9,0,1.7,0.4,2.2,1.1l68.9,93.2c0.3,0.5,0.5,1,0.5,1.6v0.9C304.5,548.1,303.3,549.3,301.8,549.3z M168.7,543.9h128.4
				l-64.2-86.8L168.7,543.9z"/>
		</g>
		<g>
			<path d="M172.7,485.1c-12.3,0-22.3-10-22.3-22.3c0-12.3,10-22.3,22.3-22.3c12.3,0,22.3,10,22.3,22.3
				C195,475.1,185,485.1,172.7,485.1z M172.7,445.8c-9.3,0-16.9,7.6-16.9,16.9c0,9.3,7.6,16.9,16.9,16.9c9.3,0,16.9-7.6,16.9-16.9
				C189.6,453.4,182,445.8,172.7,445.8z"/>
		</g>
		<g>
			<path d="M145.9,578.4h-38.2c-1.5,0-2.7-1.2-2.7-2.7s1.2-2.7,2.7-2.7h38.2c1.5,0,2.7,1.2,2.7,2.7S147.4,578.4,145.9,578.4z"/>
		</g>
		<g>
			<path d="M181.4,578.4h-18.1c-1.5,0-2.7-1.2-2.7-2.7s1.2-2.7,2.7-2.7h18.1c1.5,0,2.7,1.2,2.7,2.7S182.9,578.4,181.4,578.4z"/>
		</g>
	</g>
	<g>
		<path d="M171.3,714.4c0,0-0.1,0-0.1,0h-62c-1,0-1.9-0.5-2.3-1.3c-0.5-0.8-0.5-1.9,0-2.7l31-53.7c1-1.7,3.7-1.7,4.7,0l30.7,53.1
			c0.5,0.5,0.8,1.2,0.8,1.9C174,713.2,172.8,714.4,171.3,714.4z M113.9,709h52.7l-26.3-45.6L113.9,709z"/>
	</g>
	<g>
		<path d="M171.3,798c0,0-0.1,0-0.1,0h-62c-1,0-1.9-0.5-2.3-1.3c-0.5-0.8-0.5-1.9,0-2.7l31-53.7c1-1.7,3.7-1.7,4.7,0l30.7,53.1
			c0.5,0.5,0.8,1.2,0.8,1.9C174,796.8,172.8,798,171.3,798z M113.9,792.6h52.7L140.2,747L113.9,792.6z"/>
	</g>
	<g>
		<path d="M171.3,881.6c0,0-0.1,0-0.1,0h-62c-1,0-1.9-0.5-2.3-1.3c-0.5-0.8-0.5-1.9,0-2.7l31-53.7c1-1.7,3.7-1.7,4.7,0l30.7,53.1
			c0.5,0.5,0.8,1.2,0.8,1.9C174,880.4,172.8,881.6,171.3,881.6z M113.9,876.2h52.7l-26.3-45.6L113.9,876.2z"/>
	</g>
	<g>
		<g>
			<path d="M1208.1,395.3c-43.8,0-109.1-6.2-109.1-23.1c0-16.9,65.2-23.1,109.1-23.1s109.1,6.1,109.1,23.1
				C1317.2,389.2,1252,395.3,1208.1,395.3z M1208.1,354.5c-63.3,0-103.7,10.5-103.7,17.7c0,7.2,40.4,17.7,103.7,17.7
				c63.3,0,103.7-10.5,103.7-17.7C1311.8,365,1271.4,354.5,1208.1,354.5z"/>
		</g>
		<g>
			<path d="M1208.1,458.6c-43.8,0-109.1-6.2-109.1-23.1c0-5.5,6.4-10,19.6-13.8c0.5-0.1,1-0.1,1.5,0c19.6,5.7,52.4,9,87.9,9
				s68.4-3.4,87.9-9c0.5-0.1,1-0.1,1.5,0c13.2,3.8,19.6,8.3,19.6,13.8C1317.2,452.5,1252,458.6,1208.1,458.6z M1119.5,427.1
				c-14.6,4.3-15,8-15,8.5c0,7.2,40.4,17.7,103.7,17.7c63.3,0,103.7-10.5,103.7-17.7c0-0.4-0.4-4.1-15-8.5c-20.1,5.7-53.2,9-88.7,9
				C1172.6,436.1,1139.6,432.7,1119.5,427.1z"/>
		</g>
		<g>
			<path d="M1208.1,436.1c-36,0-69.4-3.5-89.4-9.2c-13.2-3.8-19.6-8.3-19.6-13.8v-40.8c0-1.5,1.2-2.7,2.7-2.7c1.5,0,2.7,1.2,2.7,2.7
				c0,7.2,40.4,17.7,103.7,17.7c63.3,0,103.7-10.5,103.7-17.7c0-1.5,1.2-2.7,2.7-2.7s2.7,1.2,2.7,2.7V413c0,5.5-6.4,10-19.6,13.8
				C1277.5,432.6,1244.1,436.1,1208.1,436.1z M1104.5,380.1V413c0,0.4,0.4,4.2,15.7,8.7c19.6,5.7,52.4,9,87.9,9s68.4-3.4,87.9-9
				c15.3-4.4,15.7-8.2,15.7-8.7v-32.9c-16.5,11-67.4,15.2-103.7,15.2S1121,391.1,1104.5,380.1z"/>
		</g>
		<g>
			<path d="M1208.1,521.9c-43.8,0-109.1-6.2-109.1-23.1c0-5.5,6.4-10,19.6-13.8c0.5-0.1,1-0.1,1.5,0c19.5,5.7,52.4,9,87.9,9
				c35.5,0,68.4-3.4,87.9-9c0.5-0.1,1-0.1,1.5,0c13.2,3.8,19.6,8.3,19.6,13.8C1317.2,515.7,1252,521.9,1208.1,521.9z M1119.5,490.4
				c-14.6,4.3-15,8-15,8.5c0,7.2,40.4,17.7,103.7,17.7c63.3,0,103.7-10.5,103.7-17.7c0-0.4-0.4-4.1-15-8.5c-20.1,5.7-53.1,9-88.7,9
				S1139.5,496,1119.5,490.4z"/>
		</g>
		<g>
			<path d="M1208.1,499.4c-36,0-69.4-3.5-89.4-9.2c-13.2-3.8-19.6-8.3-19.6-13.8v-40.8c0-1.5,1.2-2.7,2.7-2.7c1.5,0,2.7,1.2,2.7,2.7
				c0,7.2,40.4,17.7,103.7,17.7c63.3,0,103.7-10.5,103.7-17.7c0-1.5,1.2-2.7,2.7-2.7s2.7,1.2,2.7,2.7v40.8c0,5.5-6.4,10-19.6,13.8
				C1277.5,495.9,1244.1,499.4,1208.1,499.4z M1104.5,443.3v32.9c0,0.4,0.4,4.3,15.7,8.7c19.5,5.7,52.4,9,87.9,9
				c35.5,0,68.4-3.4,87.9-9c15.3-4.4,15.7-8.2,15.7-8.7v-32.9c-16.5,11-67.4,15.3-103.7,15.3S1121,454.4,1104.5,443.3z"/>
		</g>
		<g>
			<path d="M1208.1,562.7c-43.8,0-109.1-6.2-109.1-23.1v-40.8c0-1.5,1.2-2.7,2.7-2.7c1.5,0,2.7,1.2,2.7,2.7
				c0,7.2,40.4,17.7,103.7,17.7c63.3,0,103.7-10.5,103.7-17.7c0-1.5,1.2-2.7,2.7-2.7s2.7,1.2,2.7,2.7v40.8
				C1317.2,556.5,1252,562.7,1208.1,562.7z M1104.5,506.6v32.9c0,7.2,40.4,17.7,103.7,17.7c63.3,0,103.7-10.5,103.7-17.7v-32.9
				c-16.5,11-67.4,15.3-103.7,15.3S1121,517.7,1104.5,506.6z"/>
		</g>
	</g>
	<g>
		<path d="M952.7,833.8H817.3c-1.5,0-2.7-1.2-2.7-2.7s1.2-2.7,2.7-2.7h135.4c1.5,0,2.7,1.2,2.7,2.7S954.2,833.8,952.7,833.8z"/>
	</g>
	<g>
		<g>
			<path d="M1220.9,848.1h-38.9c-1.5,0-2.7-1.2-2.7-2.7v-64c0-1.5,1.2-2.7,2.7-2.7h38.9c1.5,0,2.7,1.2,2.7,2.7v64
				C1223.6,846.9,1222.4,848.1,1220.9,848.1z M1184.8,842.7h33.5v-58.6h-33.5V842.7z"/>
		</g>
		<g>
			<path d="M1259.8,870.5c-0.5,0-0.9-0.1-1.3-0.4l-38.9-22.4c-0.8-0.5-1.3-1.4-1.3-2.3v-64c0-1,0.5-1.9,1.3-2.3l38.9-22.4
				c0.8-0.5,1.9-0.5,2.7,0c0.8,0.5,1.3,1.4,1.3,2.3v108.9c0,1-0.5,1.9-1.3,2.3C1260.7,870.4,1260.3,870.5,1259.8,870.5z
				 M1223.6,843.8l33.5,19.3v-99.6l-33.5,19.3V843.8z"/>
		</g>
		<g>
			<path d="M1162.9,886.3H971.9c-12,0-21.8-9.8-21.8-21.9V762.3c0-12,9.8-21.9,21.8-21.9h191.1c12,0,21.8,9.8,21.8,21.9v102.2
				C1184.8,876.5,1175,886.3,1162.9,886.3z M971.9,745.8c-9.1,0-16.5,7.4-16.5,16.5v102.2c0,9.1,7.4,16.5,16.5,16.5h191.1
				c9.1,0,16.5-7.4,16.5-16.5V762.3c0-9.1-7.4-16.5-16.5-16.5H971.9z"/>
		</g>
		<g>
			<path d="M1036,863.6h-57.7c-1.5,0-2.7-1.2-2.7-2.7v-19.2c0-1.5,1.2-2.7,2.7-2.7h57.7c1.5,0,2.7,1.2,2.7,2.7v19.2
				C1038.7,862.4,1037.5,863.6,1036,863.6z M981,858.2h52.3v-13.8H981V858.2z"/>
		</g>
		<g>
			<path d="M1163.7,841.5h-96.3c-1.5,0-2.7-1.2-2.7-2.7v-51c0-1.5,1.2-2.7,2.7-2.7h96.3c1.5,0,2.7,1.2,2.7,2.7v51
				C1166.4,840.3,1165.2,841.5,1163.7,841.5z M1070.1,836.2h91v-45.6h-91V836.2z"/>
		</g>
	</g>
	<g>
		<path d="M1208.1,354.5c-1.5,0-2.7-1.2-2.7-2.7v-68c0-1.5,1.2-2.7,2.7-2.7s2.7,1.2,2.7,2.7v68
			C1210.8,353.3,1209.6,354.5,1208.1,354.5z"/>
	</g>
	<g>
		<path d="M1129.4,745.8c-1.5,0-2.7-1.2-2.7-2.7v-89.9c0-1.5,1.2-2.7,2.7-2.7h76.1V560c0-1.5,1.2-2.7,2.7-2.7s2.7,1.2,2.7,2.7v93.3
			c0,1.5-1.2,2.7-2.7,2.7H1132v87.2C1132,744.6,1130.8,745.8,1129.4,745.8z"/>
	</g>
	<g>
		<g>
			<path d="M228.3,334L228.3,334l-47.1,0c-0.7,0-1.4-0.3-1.9-0.8c-0.5-0.5-0.8-1.2-0.8-1.9l0-19.2c-10.9-2.7-21.3-7-31-12.8
				L134,312.9c-1,1-2.8,1-3.8,0l-33.3-33.3c-1.1-1.1-1.1-2.8,0-3.8l13.6-13.6c-5.9-9.6-10.2-20-12.8-31H78.5c-1.5,0-2.7-1.2-2.7-2.7
				v-47.1c0-1.5,1.2-2.7,2.7-2.7h19.2c2.7-10.9,7-21.3,12.8-31l-13.6-13.6c-1.1-1.1-1.1-2.8,0-3.8l33.3-33.3c1-1,2.8-1,3.8,0
				l13.6,13.6c9.6-5.9,20-10.2,31-12.8V78.7c0-1.5,1.2-2.7,2.7-2.7h47.1c1.5,0,2.7,1.2,2.7,2.7v19.2c10.9,2.7,21.3,7,31,12.8
				l13.6-13.6c1-1,2.8-1,3.8,0l33.3,33.3c1.1,1.1,1.1,2.8,0,3.8l-13.6,13.6c5.9,9.6,10.2,20,12.8,31h19.2c0.7,0,1.4,0.3,1.9,0.8
				c0.5,0.5,0.8,1.2,0.8,1.9l0,47.1c0,0.7-0.3,1.4-0.8,1.9c-0.5,0.5-1.2,0.8-1.9,0.8l0,0l-19.2,0c-2.7,10.9-7,21.3-12.8,31
				l13.6,13.6c1.1,1.1,1.1,2.8,0,3.8l-33.3,33.3c-0.5,0.5-1.2,0.8-1.9,0.8l0,0c-0.7,0-1.4-0.3-1.9-0.8L262,299.3
				c-9.6,5.9-20,10.2-31,12.8v19.2c0,0.7-0.3,1.4-0.8,1.9C229.7,333.7,229,334,228.3,334z M183.9,328.6l41.7,0V310
				c0-1.3,0.9-2.4,2.1-2.6c11.8-2.6,23-7.3,33.2-13.8c1.1-0.7,2.5-0.5,3.4,0.4l13.2,13.2l29.5-29.5l-13.2-13.2
				c-0.9-0.9-1-2.3-0.4-3.3c6.5-10.2,11.1-21.4,13.8-33.2c0.3-1.2,1.4-2.1,2.6-2.1l0,0l18.6,0l0-41.7h-18.6c-1.3,0-2.4-0.9-2.6-2.1
				c-2.6-11.8-7.3-23-13.8-33.2c-0.7-1.1-0.5-2.5,0.4-3.4l13.2-13.2l-29.5-29.5L264.3,116c-0.9,0.9-2.3,1-3.3,0.4
				c-10.2-6.5-21.4-11.1-33.2-13.8c-1.2-0.3-2.1-1.4-2.1-2.6V81.4h-41.7V100c0,1.3-0.9,2.4-2.1,2.6c-11.8,2.6-23,7.3-33.2,13.8
				c-1.1,0.7-2.5,0.5-3.4-0.4l-13.2-13.2l-29.5,29.5l13.2,13.2c0.9,0.9,1,2.3,0.4,3.3c-6.5,10.2-11.1,21.4-13.8,33.2
				c-0.3,1.2-1.4,2.1-2.6,2.1H81.2v41.7h18.6c1.3,0,2.4,0.9,2.6,2.1c2.6,11.8,7.3,23,13.8,33.2c0.7,1.1,0.5,2.5-0.4,3.3l-13.2,13.2
				l29.5,29.5l13.2-13.2c0.9-0.9,2.3-1,3.3-0.4c10.2,6.5,21.4,11.1,33.2,13.8c1.2,0.3,2.1,1.4,2.1,2.6L183.9,328.6z"/>
		</g>
		<g>
			<path d="M204.8,274.2c-38.2,0-69.2-31-69.2-69.2c0-38.2,31.1-69.2,69.2-69.2c38.2,0,69.2,31,69.2,69.2
				C274,243.2,242.9,274.2,204.8,274.2z M204.8,141.2c-35.2,0-63.8,28.6-63.8,63.8c0,35.2,28.6,63.8,63.8,63.8
				c35.2,0,63.8-28.6,63.8-63.8C268.6,169.8,240,141.2,204.8,141.2z"/>
		</g>
	</g>
	<g>
		<path d="M501.2,200.9h-98c-7.4,0-13.5-6-13.5-13.5v-98c0-7.4,6-13.5,13.5-13.5h98c7.4,0,13.5,6,13.5,13.5v98
			C514.6,194.9,508.6,200.9,501.2,200.9z M403.2,81.4c-4.5,0-8.1,3.6-8.1,8.1v98c0,4.5,3.6,8.1,8.1,8.1h98c4.5,0,8.1-3.6,8.1-8.1
			v-98c0-4.5-3.6-8.1-8.1-8.1H403.2z"/>
	</g>
	<g>
		<path d="M916.3,103.9H540.7c-1.5,0-2.7-1.2-2.7-2.7s1.2-2.7,2.7-2.7h375.6c1.5,0,2.7,1.2,2.7,2.7S917.8,103.9,916.3,103.9z"/>
	</g>
	<g>
		<path d="M916.3,163.3H540.7c-1.5,0-2.7-1.2-2.7-2.7s1.2-2.7,2.7-2.7h375.6c1.5,0,2.7,1.2,2.7,2.7S917.8,163.3,916.3,163.3z"/>
	</g>
	<g>
		<g>
			<path d="M492.6,158h-21.7c-0.8,0-1.6-0.4-2.1-1c-0.5-0.6-0.7-1.4-0.6-2.2c1-5.2,1.5-10.7,1.5-16.3c0-5.6-0.5-11.1-1.5-16.3
				c-0.2-0.8,0.1-1.6,0.6-2.2c0.5-0.6,1.3-1,2.1-1h21.7c1.1,0,2.1,0.7,2.5,1.7c2.4,5.7,3.6,11.7,3.6,17.9c0,6.2-1.2,12.2-3.6,17.9
				C494.6,157.4,493.6,158,492.6,158z M474,152.6h16.7c1.7-4.5,2.5-9.3,2.5-14.2c0-4.9-0.8-9.6-2.5-14.2H474
				c0.7,4.6,1.1,9.3,1.1,14.2C475.1,143.3,474.7,148.1,474,152.6z"/>
		</g>
		<g>
			<path d="M433.6,158h-21.7c-1.1,0-2.1-0.7-2.5-1.7c-2.4-5.7-3.6-11.7-3.6-17.9c0-6.2,1.2-12.2,3.6-17.9c0.4-1,1.4-1.7,2.5-1.7
				h21.7c0.8,0,1.6,0.4,2.1,1c0.5,0.6,0.7,1.4,0.6,2.2c-1,5.2-1.5,10.7-1.5,16.3c0,5.7,0.5,11.2,1.5,16.3c0.2,0.8-0.1,1.6-0.6,2.2
				C435.1,157.7,434.4,158,433.6,158z M413.7,152.6h16.7c-0.7-4.6-1.1-9.3-1.1-14.2c0-4.8,0.4-9.6,1.1-14.2h-16.7
				c-1.7,4.5-2.5,9.3-2.5,14.2C411.2,143.4,412,148.1,413.7,152.6z"/>
		</g>
		<g>
			<path d="M492.6,124.3h-21.7c-1.3,0-2.4-0.9-2.6-2.2c-2.9-14.8-9.3-24.7-16-24.7c-1.5,0-2.7-1.2-2.7-2.7c0-1.5,1.2-2.7,2.7-2.7
				c18.8,0,35.6,11.2,42.8,28.5c0.3,0.8,0.3,1.8-0.2,2.5C494.3,123.9,493.5,124.3,492.6,124.3z M473,118.9h15.3
				c-5.1-9.4-13.5-16.3-23.5-19.5C468.4,104.1,471.2,110.7,473,118.9z"/>
		</g>
		<g>
			<path d="M433.6,124.3h-21.7c-0.9,0-1.7-0.5-2.2-1.2c-0.5-0.8-0.6-1.7-0.2-2.5c7.2-17.3,24.1-28.5,42.8-28.5
				c1.5,0,2.7,1.2,2.7,2.7c0,1.5-1.2,2.7-2.7,2.7c-6.7,0-13.1,9.9-16,24.7C436,123.4,434.8,124.3,433.6,124.3z M416.1,118.9h15.3
				c1.8-8.2,4.7-14.9,8.2-19.5C429.6,102.6,421.2,109.5,416.1,118.9z"/>
		</g>
		<g>
			<path d="M452.2,184.9c-1.5,0-2.7-1.2-2.7-2.7c0-1.5,1.2-2.7,2.7-2.7c6.7,0,13.1-9.9,16-24.7c0.2-1.3,1.4-2.2,2.6-2.2h21.7
				c0.9,0,1.7,0.5,2.2,1.2c0.5,0.8,0.6,1.7,0.2,2.5C487.8,173.7,471,184.9,452.2,184.9z M473,158c-1.8,8.2-4.7,14.9-8.2,19.5
				c9.9-3.2,18.4-10.1,23.5-19.5H473z"/>
		</g>
		<g>
			<path d="M452.2,184.9c-18.8,0-35.6-11.2-42.8-28.5c-0.3-0.8-0.3-1.8,0.2-2.5c0.5-0.7,1.3-1.2,2.2-1.2h21.7c1.3,0,2.4,0.9,2.6,2.2
				c2.8,14.8,9.3,24.7,16,24.7c1.5,0,2.7,1.2,2.7,2.7C454.9,183.7,453.7,184.9,452.2,184.9z M416.1,158c5.1,9.4,13.5,16.3,23.4,19.5
				c-3.5-4.6-6.4-11.3-8.2-19.5H416.1z"/>
		</g>
		<g>
			<path fill="none" d="M452.2,94.7C452.2,94.7,452.2,94.7,452.2,94.7S452.2,94.7,452.2,94.7L452.2,94.7z"/>
		</g>
		<g>
			<path fill="none" d="M452.2,182.2L452.2,182.2C452.2,182.2,452.2,182.2,452.2,182.2S452.2,182.2,452.2,182.2z"/>
		</g>
		<g>
			<path d="M470.8,124.3h-37.3c-0.8,0-1.6-0.4-2.1-1c-0.5-0.6-0.7-1.4-0.6-2.2c3.5-17.9,11.6-29.1,21.3-29.1
				c9.7,0,17.8,11.1,21.3,29.1c0.2,0.8-0.1,1.6-0.6,2.2C472.4,124,471.6,124.3,470.8,124.3z M436.9,118.9h30.6
				c-3.1-13-9.1-21.5-15.3-21.5C446,97.4,440,105.9,436.9,118.9z"/>
		</g>
		<g>
			<path d="M452.2,184.9c-9.7,0-17.8-11.1-21.3-29.1c-0.2-0.8,0.1-1.6,0.6-2.2c0.5-0.6,1.3-1,2.1-1h37.3c0.8,0,1.6,0.4,2.1,1
				c0.5,0.6,0.7,1.4,0.6,2.2C470,173.8,461.9,184.9,452.2,184.9z M436.9,158c3.1,13,9.1,21.5,15.3,21.5h0c6.2,0,12.2-8.5,15.3-21.5
				H436.9z"/>
		</g>
		<g>
			<path d="M470.8,158h-37.3c-1.3,0-2.4-0.9-2.6-2.2c-1.1-5.5-1.6-11.4-1.6-17.4s0.5-11.8,1.6-17.4c0.2-1.3,1.4-2.2,2.6-2.2h37.3
				c1.3,0,2.4,0.9,2.6,2.2c1.1,5.5,1.6,11.4,1.6,17.4s-0.5,11.8-1.6,17.4C473.2,157.1,472.1,158,470.8,158z M435.8,152.6h32.8
				c0.7-4.5,1.1-9.3,1.1-14.2c0-4.9-0.4-9.6-1.1-14.2h-32.8c-0.7,4.5-1.1,9.3-1.1,14.2C434.7,143.3,435.1,148.1,435.8,152.6z"/>
		</g>
	</g>
</g>
</svg>
