<svg version="1.1" xmlns="http://www.w3.org/2000/svg" viewBox="0 0 200 200" width="200" height="200" filter="invert(93%) hue-rotate(180deg)">
  <!-- svg-source:excalidraw -->
  
  <defs>
    <style class="style-fonts">
      @font-face {
        font-family: "Virgil";
        src: url("https://excalidraw.com/Virgil.woff2");
      }
      @font-face {
        font-family: "Cascadia";
        src: url("https://excalidraw.com/Cascadia.woff2");
      }
    </style>
  </defs>
  <g stroke-linecap="round" transform="translate(0 0) rotate(0 100 100)"><path d="M32 0 M32 0 C76.53 0, 121.05 0, 168 0 M32 0 C85.21 0, 138.41 0, 168 0 M168 0 C189.33 0, 200 10.67, 200 32 M168 0 C189.33 0, 200 10.67, 200 32 M200 32 C200 78.69, 200 125.38, 200 168 M200 32 C200 71.13, 200 110.25, 200 168 M200 168 C200 189.33, 189.33 200, 168 200 M200 168 C200 189.33, 189.33 200, 168 200 M168 200 C114.19 200, 60.38 200, 32 200 M168 200 C136.45 200, 104.89 200, 32 200 M32 200 C10.67 200, 0 189.33, 0 168 M32 200 C10.67 200, 0 189.33, 0 168 M0 168 C0 120.6, 0 73.2, 0 32 M0 168 C0 113.95, 0 59.91, 0 32 M0 32 C0 10.67, 10.67 0, 32 0 M0 32 C0 10.67, 10.67 0, 32 0" stroke="#000000" stroke-width="4" fill="none"></path></g><g stroke-linecap="round" transform="translate(0 0) rotate(0 100 100)"><path d="M200 100 C200 103.27, 199.84 106.55, 199.52 109.8 C199.2 113.05, 198.72 116.3, 198.08 119.51 C197.44 122.71, 196.64 125.9, 195.69 129.03 C194.75 132.16, 193.64 135.25, 192.39 138.27 C191.14 141.29, 189.73 144.26, 188.19 147.14 C186.65 150.02, 184.96 152.84, 183.15 155.56 C181.33 158.27, 179.37 160.91, 177.3 163.44 C175.23 165.96, 173.02 168.4, 170.71 170.71 C168.4 173.02, 165.96 175.23, 163.44 177.3 C160.91 179.37, 158.27 181.33, 155.56 183.15 C152.84 184.96, 150.02 186.65, 147.14 188.19 C144.26 189.73, 141.29 191.14, 138.27 192.39 C135.25 193.64, 132.16 194.75, 129.03 195.69 C125.9 196.64, 122.71 197.44, 119.51 198.08 C116.3 198.72, 113.05 199.2, 109.8 199.52 C106.55 199.84, 103.27 200, 100 200 C96.73 200, 93.45 199.84, 90.2 199.52 C86.95 199.2, 83.7 198.72, 80.49 198.08 C77.29 197.44, 74.1 196.64, 70.97 195.69 C67.84 194.75, 64.75 193.64, 61.73 192.39 C58.71 191.14, 55.74 189.73, 52.86 188.19 C49.98 186.65, 47.16 184.96, 44.44 183.15 C41.73 181.33, 39.09 179.37, 36.56 177.3 C34.04 175.23, 31.6 173.02, 29.29 170.71 C26.98 168.4, 24.77 165.96, 22.7 163.44 C20.63 160.91, 18.67 158.27, 16.85 155.56 C15.04 152.84, 13.35 150.02, 11.81 147.14 C10.27 144.26, 8.86 141.29, 7.61 138.27 C6.36 135.25, 5.25 132.16, 4.31 129.03 C3.36 125.9, 2.56 122.71, 1.92 119.51 C1.28 116.3, 0.8 113.05, 0.48 109.8 C0.16 106.55, 0 103.27, 0 100 C0 96.73, 0.16 93.45, 0.48 90.2 C0.8 86.95, 1.28 83.7, 1.92 80.49 C2.56 77.29, 3.36 74.1, 4.31 70.97 C5.25 67.84, 6.36 64.75, 7.61 61.73 C8.86 58.71, 10.27 55.74, 11.81 52.86 C13.35 49.98, 15.04 47.16, 16.85 44.44 C18.67 41.73, 20.63 39.09, 22.7 36.56 C24.77 34.04, 26.98 31.6, 29.29 29.29 C31.6 26.98, 34.04 24.77, 36.56 22.7 C39.09 20.63, 41.73 18.67, 44.44 16.85 C47.16 15.04, 49.98 13.35, 52.86 11.81 C55.74 10.27, 58.71 8.86, 61.73 7.61 C64.75 6.36, 67.84 5.25, 70.97 4.31 C74.1 3.36, 77.29 2.56, 80.49 1.92 C83.7 1.28, 86.95 0.8, 90.2 0.48 C93.45 0.16, 96.73 0, 100 0 C103.27 0, 106.55 0.16, 109.8 0.48 C113.05 0.8, 116.3 1.28, 119.51 1.92 C122.71 2.56, 125.9 3.36, 129.03 4.31 C132.16 5.25, 135.25 6.36, 138.27 7.61 C141.29 8.86, 144.26 10.27, 147.14 11.81 C150.02 13.35, 152.84 15.04, 155.56 16.85 C158.27 18.67, 160.91 20.63, 163.44 22.7 C165.96 24.77, 168.4 26.98, 170.71 29.29 C173.02 31.6, 175.23 34.04, 177.3 36.56 C179.37 39.09, 181.33 41.73, 183.15 44.44 C184.96 47.16, 186.65 49.98, 188.19 52.86 C189.73 55.74, 191.14 58.71, 192.39 61.73 C193.64 64.75, 194.75 67.84, 195.69 70.97 C196.64 74.1, 197.44 77.29, 198.08 80.49 C198.72 83.7, 199.2 86.95, 199.52 90.2 C199.84 93.45, 199.92 98.37, 200 100 C200.08 101.63, 200.08 98.37, 200 100" stroke="#000000" stroke-width="4" fill="none"></path></g><g stroke-linecap="round" transform="translate(40 40) rotate(0 60 60)"><path d="M30 0 M30 0 C48.88 0, 67.76 0, 90 0 M30 0 C49.25 0, 68.51 0, 90 0 M90 0 C110 0, 120 10, 120 30 M90 0 C110 0, 120 10, 120 30 M120 30 C120 48.39, 120 66.77, 120 90 M120 30 C120 49.82, 120 69.65, 120 90 M120 90 C120 110, 110 120, 90 120 M120 90 C120 110, 110 120, 90 120 M90 120 C73.09 120, 56.17 120, 30 120 M90 120 C70.18 120, 50.37 120, 30 120 M30 120 C10 120, 0 110, 0 90 M30 120 C10 120, 0 110, 0 90 M0 90 C0 73.02, 0 56.03, 0 30 M0 90 C0 66.46, 0 42.93, 0 30 M0 30 C0 10, 10 0, 30 0 M0 30 C0 10, 10 0, 30 0" stroke="#000000" stroke-width="2" fill="none"></path></g><g stroke-linecap="round" transform="translate(40 40) rotate(0 60 60)"><path d="M120 60 C120 62.41, 119.85 64.84, 119.56 67.23 C119.27 69.63, 118.83 72.02, 118.26 74.36 C117.68 76.7, 116.96 79.02, 116.1 81.28 C115.25 83.53, 114.25 85.75, 113.13 87.88 C112.01 90.02, 110.75 92.1, 109.38 94.08 C108.01 96.07, 106.51 97.98, 104.91 99.79 C103.31 101.59, 101.59 103.31, 99.79 104.91 C97.98 106.51, 96.07 108.01, 94.08 109.38 C92.1 110.75, 90.02 112.01, 87.88 113.13 C85.75 114.25, 83.53 115.25, 81.28 116.1 C79.02 116.96, 76.7 117.68, 74.36 118.26 C72.02 118.83, 69.63 119.27, 67.23 119.56 C64.84 119.85, 62.41 120, 60 120 C57.59 120, 55.16 119.85, 52.77 119.56 C50.37 119.27, 47.98 118.83, 45.64 118.26 C43.3 117.68, 40.98 116.96, 38.72 116.1 C36.47 115.25, 34.25 114.25, 32.12 113.13 C29.98 112.01, 27.9 110.75, 25.92 109.38 C23.93 108.01, 22.02 106.51, 20.21 104.91 C18.41 103.31, 16.69 101.59, 15.09 99.79 C13.49 97.98, 11.99 96.07, 10.62 94.08 C9.25 92.1, 7.99 90.02, 6.87 87.88 C5.75 85.75, 4.75 83.53, 3.9 81.28 C3.04 79.02, 2.32 76.7, 1.74 74.36 C1.17 72.02, 0.73 69.63, 0.44 67.23 C0.15 64.84, 0 62.41, 0 60 C0 57.59, 0.15 55.16, 0.44 52.77 C0.73 50.37, 1.17 47.98, 1.74 45.64 C2.32 43.3, 3.04 40.98, 3.9 38.72 C4.75 36.47, 5.75 34.25, 6.87 32.12 C7.99 29.98, 9.25 27.9, 10.62 25.92 C11.99 23.93, 13.49 22.02, 15.09 20.21 C16.69 18.41, 18.41 16.69, 20.21 15.09 C22.02 13.49, 23.93 11.99, 25.92 10.62 C27.9 9.25, 29.98 7.99, 32.12 6.87 C34.25 5.75, 36.47 4.75, 38.72 3.9 C40.98 3.04, 43.3 2.32, 45.64 1.74 C47.98 1.17, 50.37 0.73, 52.77 0.44 C55.16 0.15, 57.59 0, 60 0 C62.41 0, 64.84 0.15, 67.23 0.44 C69.63 0.73, 72.02 1.17, 74.36 1.74 C76.7 2.32, 79.02 3.04, 81.28 3.9 C83.53 4.75, 85.75 5.75, 87.88 6.87 C90.02 7.99, 92.1 9.25, 94.08 10.62 C96.07 11.99, 97.98 13.49, 99.79 15.09 C101.59 16.69, 103.31 18.41, 104.91 20.21 C106.51 22.02, 108.01 23.93, 109.38 25.92 C110.75 27.9, 112.01 29.98, 113.13 32.12 C114.25 34.25, 115.25 36.47, 116.1 38.72 C116.96 40.98, 117.68 43.3, 118.26 45.64 C118.83 47.98, 119.27 50.37, 119.56 52.77 C119.85 55.16, 120 57.59, 120 60" stroke="#000000" stroke-width="2" fill="none"></path></g><g stroke-linecap="round" transform="translate(71.7157287525381 71.7157287525381) rotate(45 28.284271247461902 28.284271247461902)"><path d="M14.14 0 M14.14 0 C23.04 0, 31.94 0, 42.43 0 M14.14 0 C23.22 0, 32.29 0, 42.43 0 M42.43 0 C51.85 0, 56.57 4.71, 56.57 14.14 M42.43 0 C51.85 0, 56.57 4.71, 56.57 14.14 M56.57 14.14 C56.57 22.81, 56.57 31.48, 56.57 42.43 M56.57 14.14 C56.57 23.49, 56.57 32.83, 56.57 42.43 M56.57 42.43 C56.57 51.85, 51.85 56.57, 42.43 56.57 M56.57 42.43 C56.57 51.85, 51.85 56.57, 42.43 56.57 M42.43 56.57 C34.45 56.57, 26.48 56.57, 14.14 56.57 M42.43 56.57 C33.08 56.57, 23.74 56.57, 14.14 56.57 M14.14 56.57 C4.71 56.57, 0 51.85, 0 42.43 M14.14 56.57 C4.71 56.57, 0 51.85, 0 42.43 M0 42.43 C0 34.42, 0 26.41, 0 14.14 M0 42.43 C0 31.33, 0 20.24, 0 14.14 M0 14.14 C0 4.71, 4.71 0, 14.14 0 M0 14.14 C0 4.71, 4.71 0, 14.14 0" stroke="#000000" stroke-width="1" fill="none"></path></g><g stroke-linecap="round" transform="translate(71.7157287525381 71.7157287525381) rotate(45 28.284271247461902 28.284271247461902)"><path d="M56.57 28.28 C56.57 29.92, 56.42 31.58, 56.14 33.2 C55.85 34.81, 55.42 36.42, 54.86 37.96 C54.3 39.5, 53.6 41.01, 52.78 42.43 C51.96 43.84, 51 45.21, 49.95 46.47 C48.9 47.72, 47.72 48.9, 46.47 49.95 C45.21 51, 43.84 51.96, 42.43 52.78 C41.01 53.6, 39.5 54.3, 37.96 54.86 C36.42 55.42, 34.81 55.85, 33.2 56.14 C31.58 56.42, 29.92 56.57, 28.28 56.57 C26.65 56.57, 24.99 56.42, 23.37 56.14 C21.76 55.85, 20.15 55.42, 18.61 54.86 C17.07 54.3, 15.56 53.6, 14.14 52.78 C12.72 51.96, 11.36 51, 10.1 49.95 C8.85 48.9, 7.67 47.72, 6.62 46.47 C5.56 45.21, 4.61 43.84, 3.79 42.43 C2.97 41.01, 2.27 39.5, 1.71 37.96 C1.15 36.42, 0.71 34.81, 0.43 33.2 C0.15 31.58, 0 29.92, 0 28.28 C0 26.65, 0.15 24.99, 0.43 23.37 C0.71 21.76, 1.15 20.15, 1.71 18.61 C2.27 17.07, 2.97 15.56, 3.79 14.14 C4.61 12.72, 5.56 11.36, 6.62 10.1 C7.67 8.85, 8.85 7.67, 10.1 6.62 C11.36 5.56, 12.72 4.61, 14.14 3.79 C15.56 2.97, 17.07 2.27, 18.61 1.71 C20.15 1.15, 21.76 0.71, 23.37 0.43 C24.99 0.15, 26.65 0, 28.28 0 C29.92 0, 31.58 0.15, 33.2 0.43 C34.81 0.71, 36.42 1.15, 37.96 1.71 C39.5 2.27, 41.01 2.97, 42.43 3.79 C43.84 4.61, 45.21 5.56, 46.47 6.62 C47.72 7.67, 48.9 8.85, 49.95 10.1 C51 11.36, 51.96 12.72, 52.78 14.14 C53.6 15.56, 54.3 17.07, 54.86 18.61 C55.42 20.15, 55.85 21.76, 56.14 23.37 C56.42 24.99, 56.5 27.47, 56.57 28.28 C56.64 29.1, 56.64 27.47, 56.57 28.28" stroke="#000000" stroke-width="1" fill="none"></path></g></svg>